<svg xmlns="http://www.w3.org/2000/svg">
  <style>:root svg:not(:target){display:none}</style>
  <svg id="logo" viewbox="0 0 185 96" fill="none">
    <path fill="#81B3D3" d="M185 0H0l79.81 90.1c7.04 7.87 18.44 7.87 25.48 0L185 0Z" />
    <path fill="#23A9E1" d="M42.83.7 92 58.84 140.88 1.1 42.83.7Z" />
    <path fill="#fff"
      d="M120.95 17.22c-5.05 0-10 .1-15.07.1 5.95-6.87 8.63-6.17 15.07-.1ZM80.1 22.6h26.48c-1.98-1.2-6.64-7.07-9.22-4.88-.2.2-7.44-8.86-12.2-4.48-4.16 3.78-6.04-.5-10.8 2.49-5.26 3.58 3.17 5.68 5.75 6.87Z" />
    <path fill="#491213"
      d="M92.3 0H41.84v22.4L92 83.63l.3-.4 50.27-60.13V0H92.3ZM54.43 1.8h5.45v17.12l-5.45-6.48V1.8Zm-.8 9.75-4.95-5.88V1.8h4.96v9.76Zm19.14-2.69L67.12 1.8h5.65v7.07Zm-6.54 3.78L60.68 1.8h5.55v10.85ZM60.58 3.4l5.45 10.65a39.17 39.17 0 0 0-5.45 4.88V3.39Zm6.44-.5 5.55 6.87a41.79 41.79 0 0 0-5.55 3.68V2.89Zm6.54-.2 4.76 4.18a56.9 56.9 0 0 0-4.76 2.29V2.69Zm5.56 3.88L73.76 1.8h5.95v4.58c-.3 0-.4.1-.6.2ZM98.05 1.8h4.96l-4.96 2.4V1.8Zm-5.75 0h4.36L92.3 3.9V1.8Zm-.9 2-4.15-2h4.16v2Zm-5.44.5L80.9 1.8h5.06v2.5ZM80.4 2.4l4.66 2.29c-1.58.4-3.17.8-4.66 1.3v-3.6Zm6.35 0L90.12 4c-1.19.1-2.28.2-3.47.4v-2h.1Zm10.31.1v1.9c-1.09-.2-2.18-.3-3.37-.4l3.37-1.5Zm6.44-.1v3.68c-1.48-.5-3.07-1-4.75-1.4l4.75-2.28Zm.7-.6h5.85l-5.36 4.78c-.2-.1-.3-.1-.5-.2V1.8Zm13.48 0h5.55l-5.55 10.85V1.8Zm-6.54 0h5.65l-5.65 6.97V1.8Zm-.8.9v6.47c-1.48-.8-3.07-1.6-4.75-2.29l4.76-4.18Zm6.55.2v10.45c-.7-.5-1.49-1-2.28-1.6-1-.69-2.18-1.39-3.37-2.08l5.65-6.77Zm6.34.5v15.13c-1.09-1-2.87-2.69-5.45-4.58l5.45-10.55Zm.8 15.92V1.8h5.45v11.35l-5.45 6.17c.1.1 0 .1 0 0Zm6.24-17.52h4.96v4.68l-4.96 5.78V1.79Zm-82.29 0v2.89L45.51 1.8h2.48Zm12.7 18.12.1.1s3.56-3.88 9.12-7.57C75.15 8.96 83.08 4.88 92 4.98c8.83 0 16.96 4.18 22.11 7.66 5.56 3.69 9.22 7.47 9.32 7.57l-3.86 4.48c-6.84.9-11.8 6.07-18.44 4.98-3.38-.6-3.47-2.49-4.47-4.48-.69-1.5-1.88-1.3-3.47-1.9-1.38-.59-2.28-1.69-5.15-1.09-2.48.6-2.78 4.48-5.95 4.28-1.69-.1-1.78-2.49-4.16-5.47-6.25-7.57-12.1-6.47-16.07.5l30.05 35.74L60.68 19.9Zm75.24-14.43v-3.7h3.18l-3.18 3.69Z" />
    <path fill="#23A9E1" d="M87.94 70.59 92 64.12l3.97 6.47L92 77.06l-4.06-6.47Z" />
    <path fill="#fff"
      d="M64.94 32.16c.5.6.9 1.3.8 2.09-.1.6-.9 1.6-.3 1.79.69-.9 1.48-1.9 2.18-2.79-.6-.2-5.36-5.77-5.36-6.47-1.09.6-2.08 1.2-3.17 1.7.2.7 1.29 0 1.88 0 .8.1 1.4.6 1.99 1.19-1.69 1.4-5.85 4.98-6.35 5.08-.2 0-1.09-.6-1.09-.1 0 .3.9 1 1 1.2.69.89 1.48 1.78 2.17 2.68.6-.3-.1-.7.2-1.2.3-.4 4.86-4.28 6.05-5.17Zm-5.26-6.97c.4-.1.6.4 1-.1-.8-1-1.6-1.9-2.38-2.89-.4-.4-.8-.9-.7 0 .1.6-6.05 5.68-6.44 5.78-.5.2-.8-.4-1.1.1.7.9 1.5 1.69 2.19 2.58.2.3.5.6.7.9.29.3.19-.7.19-.6-.1-.5.5-.9.9-1.2 1.48-1.29 5.25-4.57 5.64-4.57Zm-8.72-.89c-1.79.49-3.67-.2-4.16-2-.5-1.8.59-3.78 2.08-4.78 1.39-1 3.57-1 4.36.8.3.8.2 1.7-.1 2.49-.2.5-.6 1 .1 1.3.9-1.1 1.68-2.2 2.58-3.3-1.1-.6-1.49-1.69-2.28-2.58-.9-1.1-2.09-2.1-3.47-2.3-2.88-.39-5.55 2.6-5.75 5.19a6.3 6.3 0 0 0 1.19 3.98c.79 1 1.88 1.6 2.38 2.79.3.1 2.67-1 3.27-1.3-.1-.1-.1-.2-.2-.3 0 0-.7.2 0 0Zm38.96 36.23c-1.19-.8-3.96-4.68-4.56-5.27-.1-.1-.2-.3-.3-.4 0 0-.3.2-.2.2-.2.1.1.6-.1.9-.79 1.19-5.74 4.97-5.94 5.17-.6.4-1.2-.2-1.49.3.7.9 2.78 3.48 2.98 3.58.5.1.1-.8.2-1 .1-.4 2.57-2.38 3.46-3.18.3-.3.7.4.9.7.3.5.5 1 .3 1.6-.1.39-.7.89-.3 1.19.6-.7 2.38-2.8 2.57-3 .3-.29-.6 0-.5-.1-.39.2-.69.2-1.08 0-.1-.1-1.1-1.09-1-1.19.4-.4 1-1 1.5-1.1.89-.19 1.58 1.5 1.68 2.1.1.6.1 1.2-.1 1.8-.1.39-.5.69 0 .89.7-1 1.39-1.9 2.08-2.89.2-.2 0-.3-.1-.3.2 0-.1-.1 0 0Zm-10.11-4.18a5.32 5.32 0 0 0 .8-7.27c-1.9-2.49-5.36-3.08-7.74-1.1a5.31 5.31 0 0 0-.8 7.28c1.99 2.68 5.16 2.98 7.74 1.09 1.19-.9-.1.1 0 0Zm-.5-4.68a7.36 7.36 0 0 1-3.66 3.68c-1.79.7-3.08-.8-2.38-2.58a7.77 7.77 0 0 1 3.66-3.69c1.89-.7 3.08.9 2.38 2.6.1-.2-.4.89 0 0Zm-5.85-9.86c.5.1.9.5 1.3 0-.7-.9-1.5-1.79-2.19-2.58-.6.3 0 .5-.2 1-.2.39-2.57.79-3.17.89.2-.6.9-2.6 1.2-2.79.49-.4.88.4 1.28-.1L69 34.95c-.3-.4-.6-1-.99-.7 0 0 0 1.5-.1 1.7-.1.19-.89 3.57-1.88 4.47-.5.4-2.18 1.9-2.68 2.1-.5.2-.8-.6-1.19 0 .8.99 1.69 1.98 2.48 2.98.1.1.6.9.8.9.49.1.1-.9.1-1.1.2-.4 2.47-2.69 3.46-2.89 1.2-.2 2.98-.7 4.46-.6.3.1-.4 0 0 0Z" />
    <path fill="#DC6243"
      d="M67.22 22.8c-3.97-.2-2.38-3.98.4-4.78 2.57-.8 8.03 1.7 9.71 3.39-2.77.9-6.34.7-9.32.9-.2-3.2-.99-2.1-.8.49Zm9.42 12.44c-8.53-.1-2.78-13.24.1-12.44 3.37 1.1 2.97 12.54-.1 12.44Zm6.04-4.28c-.79 2.5-2.37 2.99-2.18-.1.2-3.48 2.48-2.68 4.86-3.98 1.98-1.1 3.08-5.18 6.55-2.79 1.58 1.1 3.37.2 3.86 1.8 0-.1-4.46 10.25-1.98 10.25-4.96 0-2.78-5.87-.9-9.86-1.78.9-4.75 6.67-2.37 7.57-1.3 1.7-5.16 3.88-7.14 2.29-1.49-1.1-.7-3.19-.7-5.18Zm4.07 9.56c-3.47 1-8.03-1.2-2.48-2.29 3.47-.7 7.14.7 2.48 2.3.1 0-.1 0 0 0Zm4.36-.1c-.7-1.7.6-3.58 2.68-2.19 1.78 1.2-.9 3.09-2.68 2.2ZM88.14 45c-2.38-.7-10.41-.6-5.16-2.79 1.69-.6 10.11.2 5.16 2.8Zm10.41 3.29c-1.39-1.2-2.88-1.3-4.17 0-1.78-3.29-8.23-2.2-11.3-2.7 1.59 4.09 14.67 4.89 15.47 2.7Zm-1.89 2.49c-3.17-.1-6.64-.6-9.51.1 1.88.5 6.34 1.79 2.18 2.88 1.48 2.2 3.96 2 5.55.1-.7-.3-1-.7-1.59-1.1 1.59-.3 3.18-1.19 3.37-1.98Zm3.57-3.88c-5.25-3.1-3.96-5.38.4-7.57 2.28-1.1 7.24-5.18 9.32-3.89-3.27 3.89-6.54 7.67-9.72 11.45Z" />
    <path fill="#F49774"
      d="M96.47 39.62c-4.47-4.58 6.64-4.18 8.42-5.77 1.3.4 10.71-8.26 12.99-7.67-1.69 1.9-5.16 8.07-7.73 8.07-1.98 0-3.97-.3-5.46 1.1-2.18 2.08-5.84 3.08-8.22 4.27Z" />
    <path fill="#F4B1A4"
      d="M97.95 34.05c-2.48 1.3-4.76-3.88-.5-3.39 2.78.3 5.66-.2 8.24.2-1.99 2.3-4.66 3.59-7.74 3.19Z" />
    <path fill="#fff"
      d="M110.44 52.27c.2.6.3 1.3.2 1.99-.1.9-.99 2.89-2.18 2.29-1.19-.6-2.18-1.7-3.17-2.59.8-.9 1.49-1.7 2.88-1.3.4.1.69 0 .3-.3-.4-.2-3.08-1.98-3.28-1.78-.3.3.5.9.2 1.49-.2.4-.6.8-.9 1.2-.69-.6-1.88-1.3-1.08-2.3.5-.7 1.28-1.19 2.08-1.29.6-.1 1.78.4 1.98-.2-1.09-.5-2.18-1-3.27-1.6.2.8-3.27 4.49-4.07 5.48-.1.1-.69.6-.69.8 0 .4.6.1.7.1.49-.2 6.74 5.08 6.93 5.48.1.3-.2.6 0 .7 0 0 .2.2.3.2.4-.5 4.46-5.98 5.35-6.18-.79-1.2-1.58-2.4-2.37-3.68-.6.3 0 1 .1 1.49Zm-6.14 6.67c-2.08-1.3-5.55 1.3-6.05 1.5-1 .49-1.78-.5-1.29-1.5a3 3 0 0 1 2.28-1.3c.3 0 1.3.2 1.49 0 .1-.2.2-.2 0-.3-.9-.6-1.69-1.19-2.58-1.69-.2 1.1-1.39 1.7-2.08 2.4-.8.89-1.49 1.88-1.49 3.18 0 1.1.7 2.09 1.69 2.69 1.09.6 2.28.1 3.27-.5.6-.4 1.29-.9 1.88-1.2 1-.5 2.28-.1 1.99 1.3a3.44 3.44 0 0 1-2.38 2.29c-.6.2-1.3.1-1.89-.1-.4-.1-.99-.7-1.19-.1 1.2.8 2.28 1.7 3.47 2.49.1-.8.5-1.1 1.1-1.6.69-.6 1.38-1.29 1.98-2.09 1.19-1.69 1.58-4.08-.2-5.47Zm0 0c-.6-.5.99.6 0 0Zm36.38-39.43c-.7.7-8.33-2.29-8.92-2.78-.3-.1-.3-1.3-.7-.8l-1.18 1.5c-.4.5-.8.99-1.3 1.49-.29.3-.49.5 0 .7.8-.4 5.36 7.26 4.96 8.46-.69.4-6.84-5.08-7.03-5.38-.1-.1.3-1-.2-.9-.2 0-.7.9-.9 1.1-.3.4-.59.7-.89 1.1.3.5.5 0 1 0 .4.1 1.78 1.29 2.18 1.69-.7 0-2.68.1-2.88.1-.9.1-.4-.7-1-.9-.78.9-1.48 1.8-2.27 2.79l-1.29 1.59c-.1.1 0 0 0 .1.3.3.1.2.6 0 .49-.2 6.54 4.88 6.74 5.18.4.4-.2 1 .4 1.2.59-.7 1.18-1.5 1.78-2.2.1-.1.1-.1 0-.2-.4-.4-.5.2-1 .2-.49-.1-4.36-3.38-5.84-4.58 1.78-.1 7.23-.3 8.13-.3.3 0 1.09.9 1.09 1.2-.1.4-.5.6.1.8.5-.6.99-1.1 1.48-1.7l.2-.3c.1-.1.1-.1.2-.3l.2-.2c.4-.5 1.78-1.99 1.58-2.09-.5-.4-.69.5-1.28-.1-.3-.2-1.2-1.79-1.4-2.19-.29-.4.6-.9 1-1.09.8-.5 3.17-1.2 3.47.3 0 .3-.3.5-.1.7 0 0 .2.2.3.2.2-.2 2.38-2.8 3.27-3.99-.3-.2-.4-.3-.5-.4Zm-7.33 2.2c.1 0 .2-.1 0 0-.3.2-.7.5-1 .79-.49-.9-.99-1.8-1.58-2.69 1.19.5 2.38 1 3.47 1.5-.2.1-.5.2-.9.4Zm-9.62 11.14c-2.38-1.99-5.55-1.39-7.54.8a5.38 5.38 0 0 0 .6 7.57 5.42 5.42 0 0 0 7.53-.8c1.89-2.29 1.79-5.67-.59-7.57Zm-.3 6.58s0 .1 0 0c-1.29 1.29-3.37.1-4.46-.7-1.09-.8-3.07-2.59-1.88-4.08 1.09-1.3 3.07-.2 4.16.5 1.2.8 3.37 2.58 2.28 4.18l-.1.1Z" />
    <path fill="#fff"
      d="M123.73 32.85c-.3-.2 1.19 1 0 0Zm-.3 6.68c0-.1 0-.1 0 0l.1-.1c-.1 0-.1.1-.1.1Zm-6.24 2.38c.1.1.3.3 0 0-2.88-2.19-6.25-1.59-8.43 1.1l-2.98 3.58c.4.5.8-.1 1.3.2.4.3 6.14 5.08 6.24 5.38.2.5-.3.5.1.9.2.1 4.46-5.18 4.86-6.18.89-1.79.3-3.68-1.1-4.98Zm-1.3 6.77c-.2.3 0 .1-.69.7-.3.3-6.34-4.68-6.14-4.88.79-.9 2.58-1.59 3.57-1.3 2.18.5 5.15 3.2 3.27 5.48Z" />
  </svg>
  <svg id="hero-text-mobile" viewbox="0 0 282 214" fill="none">
    <path fill="#766458"
      d="m101.39 42.8-.13.13a3.83 3.83 0 0 1-2.76 1.34l1.72-3c1.1-1.89.06-3.72-1.66-3.72-1.41 0-2.51.55-3.56 2.38l-.92 1.59-.73 1.28-.13.13c-1.35 1.53-2.64 2.75-3.43 2.75-.43 0-.62-.3-.19-.98l3.93-6.85H95l.55-.85h-1.53l1.72-3H93.9l-1.72 3h-1.66l-.55.85h1.66l-3.69 6.36c-.8 1.35-.24 2.63 1.23 2.63 1.05 0 2.27-.8 3.38-1.9 0 2.33 3.25 2.82 5.21.31h.43c1.1 0 2.83-.67 3.75-1.77 0-.3-.31-.55-.55-.68Zm-3.93.13h-.06a1.1 1.1 0 0 0-.92 1.7v.07c-.86 1.47-2.95 1.22-1.9-.73l1.4-2.39.86-1.47c1.3-2.2 3.07-1.34 1.97.55l-1.35 2.27Zm29.39-.13-.12.13c-1.35 1.53-3 2.75-4.3 2.75-1.1 0-1.77-.74-.98-2.2l.19-.3c1.16.48 3.43.24 4.78-2.15l.25-.43c.98-1.7.06-2.93-1.47-2.93-1.48 0-2.64.8-3.44 2.14l-1.78 3.06-.12.12c-1.35 1.53-2.64 2.75-3.44 2.75-.43 0-.61-.3-.18-.98l2.64-4.65c.8-1.4.06-2.38-.99-2.38-.8 0-1.65.43-2.57 1.4l2.94-5.07h-1.84l-5.1 8.74-.12.13c-1.35 1.53-2.64 2.75-3.43 2.75-.43 0-.62-.3-.19-.98l3.93-6.85h1.47l.56-.86H112l1.72-3h-1.84l-1.72 3h-1.66l-.55.86h1.66l-3.68 6.36c-.8 1.35-.25 2.63 1.22 2.63.74 0 1.54-.37 2.34-.98l-.5.8h1.85l2.76-4.83c2.82-3.55 4.05-3.06 3.31-1.72l-2.4 4.16c-.79 1.35-.24 2.63 1.24 2.63 1.1 0 2.33-.85 3.43-1.96.06 1.17 1.05 1.96 2.52 1.96 2.08 0 4.17-1.59 5.64-3.36.07-.37-.24-.61-.49-.74Zm-3.5-2.56c1.05-1.84 2.95-1.53 1.85.36l-.25.43c-.86 1.47-2.09 1.47-2.76 1.22l1.17-2.01Zm70.46 2.56-.12.13c-.68.8-1.48 1.46-2.21 2.01.61-1.77.43-4.4 1.6-6.78l-1.36-.74c-.73 1.04-2.39 3.43-4.1 5.38l-.13.13c-1.35 1.53-2.64 2.75-3.44 2.75-.43 0-.61-.3-.18-.98l3.92-6.85h-1.84l-3.25 5.69c-1.41 1.28-2.45 1.95-2.82 1.83-.43-.18 0-.85.24-1.28l3.56-6.24h-1.84l-2.88 4.95-.13.13a3.83 3.83 0 0 1-2.76 1.34l1.72-3c1.1-1.89.06-3.72-1.66-3.72-1.4 0-2.51.55-3.56 2.38l-.91 1.59-.74 1.28-.12.13c-1.36 1.53-3.01 2.75-4.3 2.75-1.1 0-1.78-.74-.98-2.2l.18-.3c1.17.48 3.44.24 4.79-2.15l.24-.43c.99-1.7.07-2.93-1.47-2.93-1.47 0-2.64.8-3.44 2.14l-1.78 3.06-.12.12c-1.53 1.77-2.82 2.87-4.3 3.48l4.12-7.03h-1.1c0-.73-.8-1.77-1.9-1.77-1 0-2.4.8-3.14 2.14l-1.78 3.06-.12.12c-1.35 1.53-2.64 2.75-3.44 2.75-.43 0-.61-.3-.18-.98l1.84-3.18c.61-1.1.3-1.77-.25-2.5l-1.04-1.23c-.25-.3-.25-.73.12-1.04l-.98-1.04c-1.04.92-1.1 1.96-.49 2.82l.18.18a45.9 45.9 0 0 1-3.13 4.1l-.12.12a3.83 3.83 0 0 1-2.76 1.34l1.72-3c1.1-1.89.06-3.72-1.66-3.72-1.41 0-2.52.55-3.56 2.38l-.92 1.6-.74 1.28-.12.12c-1.53 1.77-2.82 2.87-4.3 3.48l4.12-7.03h-1.1c0-.73-.8-1.77-1.91-1.77-.98 0-2.4.8-3.13 2.14l-2.58 4.46c-.8 1.35-.24 2.63 1.23 2.63.5 0 1.1-.24 1.78-.61l-.5.86c-2.45.73-4.04 1.77-4.04 3.11 0 1.78 2.7 2.14 4.05-.12l1.41-2.38a11.4 11.4 0 0 0 4.42-2.75c0 2.32 3.25 2.8 5.22.3h.42c1.11 0 2.83-.67 3.75-1.77.86-1.04 1.6-1.96 3.07-3.92l.24.31c.25.3.31.67.13 1.04l-1.97 3.36c-.8 1.35-.24 2.63 1.23 2.63.92 0 1.96-.6 2.94-1.47 0 .86.56 1.47 1.6 1.47.5 0 1.1-.24 1.78-.6l-.43.72c-2.45.74-4.05 1.78-4.05 3.12 0 1.78 2.7 2.14 4.05-.12l1.41-2.38a11.79 11.79 0 0 0 4.48-2.82c.06 1.17.98 1.96 2.52 1.96 1.47 0 3-.86 4.23-1.96-.06 2.39 3.26 2.88 5.22.37h.43a4.6 4.6 0 0 0 2.03-.55c-.5 1.28-.07 2.14.98 2.14.98 0 2.14-.92 3-1.77-.18.98.43 1.77 1.6 1.77 1.53 0 3.25-1.59 4.79-3.36 1.04-1.23 1.96-2.51 2.64-3.37-.74 1.9-.31 5.32-2.1 5.32-.6 0-.85-.67-.85-.67l-1.17.61s.31 1.47 2.03 1.47c.18 0 .3 0 .49-.06h.06c1.9-.25 3.75-1.71 5.1-3.3a.94.94 0 0 0-.68-.68Zm-26.33-2.56c1.05-1.84 2.95-1.53 1.84.36l-.24.43c-.86 1.47-2.09 1.47-2.77 1.22l1.17-2.01Zm-35.1 9.54c-.37.67-.98.6-.98.06 0-.5.42-1.04 1.84-1.6l-.86 1.54Zm.86-4.1c-.43 0-.62-.3-.19-.98l2.58-4.46c.98-1.72 2.95-1.29 2.03.36l-1.42 2.45c-1.1 1.77-2.27 2.63-3 2.63Zm11.29-2.75h-.06a1.1 1.1 0 0 0-.92 1.7v.07c-.86 1.47-2.95 1.22-1.9-.73l1.4-2.39.86-1.47c1.3-2.2 3.07-1.34 1.97.55l-1.35 2.27Zm11.54 6.85c-.37.67-.98.6-.98.06 0-.5.42-1.04 1.84-1.6l-.86 1.54Zm.86-4.1c-.43 0-.62-.3-.19-.98l2.58-4.46c.98-1.72 2.94-1.29 2.02.36l-1.4 2.45c-1.11 1.77-2.28 2.63-3.01 2.63Zm18.1-2.75h-.06a1.1 1.1 0 0 0-.92 1.7v.07c-.86 1.47-2.95 1.22-1.9-.73l1.4-2.39.87-1.47c1.29-2.2 3.07-1.34 1.96.55l-1.35 2.27Zm-95.19-2.08H62.11v1.22h17.73v-1.22Zm139.32 0h-17.74v1.22h17.74v-1.22Z" />
    <path fill="#81B3D3"
      d="M100.03 0h4.73l-.74 27.46h-8.9L93.9 16.14l-1.23 11.32h-8.96L83.04 0h4.66l.37 22.75h.49l3-22.75h4.67l3 22.75h.5l.3-22.75Zm19.52 22.75v4.77h-12.83V0h12.83v4.7h-8.16v6.61h6.5v4.71h-6.5v6.67h8.16v.06Zm13.13 0v4.77h-11.23V0h4.67v22.75h6.56Zm9.95-5.38 4.72-1.1v8.31a2.92 2.92 0 0 1-2.88 2.88h-7.06a2.92 2.92 0 0 1-2.88-2.88V2.88A2.88 2.88 0 0 1 137.4 0h7.06a2.92 2.92 0 0 1 2.88 2.87v5.57l-4.72 1.1v-4.9h-3.38V22.7h3.38v-5.32ZM160.12 0A2.92 2.92 0 0 1 163 2.87v21.65a2.92 2.92 0 0 1-2.88 2.87h-7.06a2.92 2.92 0 0 1-2.88-2.87V2.87A2.88 2.88 0 0 1 153.06 0h7.06Zm-1.84 4.7h-3.38v18.05h3.38V4.7ZM178.34 0h4.67v27.46h-4.67V13.94l-1.9 6.97h-4.6L170 13.94v13.52h-4.67V0H170l4.17 13.27L178.34 0Zm19.83 22.75v4.77h-12.83V0h12.83v4.7H190v6.61h6.5v4.71H190v6.67h8.16v.06Z" />
    <path fill="#fff"
      d="M27.19 96.37a12.52 12.52 0 0 0-7.92-3.06c-2.2 0-5.1 1.29-5.1 3.86 0 2.69 3.26 3.73 5.28 4.34l3.07.92c6.39 1.9 11.36 5.07 11.36 12.47 0 4.52-1.1 9.23-4.73 12.3-3.62 3.05-8.4 4.27-13 4.27A28.64 28.64 0 0 1 0 126.27l4.97-9.47c3 2.63 6.5 4.7 10.62 4.7 2.82 0 5.77-1.4 5.77-4.58 0-3.36-4.67-4.47-7.24-5.2-7.5-2.2-12.4-4.1-12.4-12.96 0-9.3 6.63-15.35 15.83-15.35a31.3 31.3 0 0 1 14.36 3.79l-4.72 9.17Zm29.03-1.71v7.64h13.44v10.1H56.22v7.88h14.23v10.1H44.31V84.62h26.14v10.1l-14.23-.07ZM79.3 84.63h16.93c12.77 0 23.32 10.03 23.32 22.87 0 12.84-10.62 22.87-23.32 22.87H79.29V84.63Zm11.96 35.65h2.7c7.12 0 13.2-3.91 13.2-12.78 0-8.2-5.4-12.78-13.08-12.78h-2.82v25.56Zm84.69-13.64c0 14.8-10.68 25.26-25.4 25.26-14.74 0-25.41-10.46-25.41-25.26 0-13.81 12.2-23.54 25.4-23.54s25.41 9.73 25.41 23.55Zm-38.42.07c0 7.89 5.83 13.63 12.95 13.63 7.12 0 12.95-5.75 12.95-13.63 0-6.3-5.83-12.11-12.95-12.11-7.06 0-12.95 5.8-12.95 12.1Zm44.74-22.08h11.97l21.85 28h.12v-28h11.97v45.74H216.2l-21.85-28.07h-.12v28.07h-11.97V84.63Zm67.57 37.79-3.19 7.95h-12.64l17.67-45.74h13.01L282 130.37h-12.7l-3.01-7.95h-16.45Zm8.35-23.66h-.13l-4.9 14.55h9.94l-4.91-14.55ZM66.22 175.93c4.73-1.6 5.03-7.46.43-7.46-1.29 0-2.82.91-3.87 2.69l-6.26 10.82c-.3.49-.55.92-.92 1.34-1.6-2.2-1.16-5.5 1.1-6.97l-.91-1.16c-4.91 3.12-3.44 12.05 4.72 12.05 6.94 0 10.19-8.32 5.71-11.31Zm-5.77 9.53c-1.41 0-2.45-.3-3.37-.79.42-.49.8-1.04 1.16-1.65l3.93-6.79.61.06c5.46 1.17 3.32 9.18-2.33 9.18Zm2.52-10.57 1.9-3.24c1.72-2.94 3.87-1.23 2.7.97-.92 1.72-2.21 2.2-4.6 2.27Z" />
    <path fill="#fff"
      d="M85.92 183.45c-.37 1.34.37 2.5 1.9 2.5.92 0 2.09-.6 3.25-1.52.13.91.86 1.53 2.03 1.53 1.23 0 2.58-.86 3.93-2.08-.25 1.22.3 2.08 1.47 2.08 1.29 0 2.7-1.17 3.8-2.2-.24 1.22.5 2.2 1.97 2.2 1.9 0 4.11-2.08 6.08-4.28 0-.07-.07-.07-.07-.13 1.3-1.47 2.4-3.06 3.26-4.16-.92 2.39-.43 6.73-2.64 6.73-.8 0-1.1-.86-1.1-.86l-1.48.74s.43 1.9 2.58 1.9c.24 0 .43 0 .67-.07h.06c1.72-.24 3.38-1.28 4.85-2.57.06 1.53 1.23 2.63 3.13 2.63 2.64 0 5.28-2.07 7.18-4.28a2.2 2.2 0 0 0-.86-.8l-.18.2c-1.66 1.95-3.8 3.48-5.46 3.48-1.41 0-2.27-.92-1.23-2.75l.25-.43c1.47.6 4.3.3 6.07-2.7l.3-.54c1.23-2.14.07-3.73-1.83-3.73-1.9 0-3.38.97-4.36 2.69l-2.27 3.85h-.06l-.19.18c-.86.98-1.9 1.9-2.82 2.51.74-2.2.55-5.63 2.03-8.56l-1.72-.92c-.98 1.35-3.07 4.34-5.16 6.79l.06.06-.06.12c-1.66 1.96-3.31 3.49-4.36 3.49-.49 0-.8-.37-.24-1.29l4.97-8.68h-2.33l-4.11 7.22c-1.78 1.59-3.13 2.5-3.56 2.32-.56-.24 0-1.1.3-1.59l4.55-7.89h-2.34L98.5 181c-.06-.06-.12-.06-.18-.12l-.19.18c-1.65 1.96-3.31 3.49-4.35 3.49-.5 0-.8-.37-.25-1.29l3.74-6.54h-1.35c.06-.98-.92-2.32-2.45-2.32-1.23 0-3 .98-4 2.69l-2.32 4.03c-.13-.12-.25-.18-.37-.24l-.19.18c-1.65 1.96-3.8 3.49-5.46 3.49-1.4 0-2.27-.92-1.22-2.75l2.39-4.16c1.35-2.32 3.74-1.9 2.33.49l-.3.55h1.9l.3-.55c1.23-2.14.06-3.73-1.84-3.73-1.9 0-3.37.98-4.36 2.69L78 181.06c-.06-.06-.12-.06-.18-.12l-.19.19c-1.65 1.95-3.8 3.48-5.46 3.48-1.4 0-2.27-.92-1.22-2.75l.24-.43c1.47.61 4.3.3 6.08-2.69l.3-.55c1.23-2.14.06-3.73-1.84-3.73-1.9 0-3.37.98-4.36 2.69l-2.45 4.16c-1.47 2.44-.18 4.77 2.58 4.77 2.02 0 4.1-1.23 5.77-2.82-.07 1.6 1.16 2.82 3.13 2.82 1.96-.13 3.86-1.23 5.52-2.63Zm35.6-5.87c1.34-2.33 3.74-1.9 2.33.49l-.31.55c-1.1 1.9-2.64 1.83-3.5 1.53l1.47-2.57Zm-33.27 5.68 3.25-5.62c1.23-2.14 3.75-1.6 2.58.49l-1.84 3.18c-1.41 2.2-2.82 3.24-3.74 3.24-.5-.06-.8-.37-.25-1.29Zm-14.85-5.68c1.35-2.33 3.74-1.9 2.33.49l-.3.55c-1.11 1.9-2.64 1.83-3.5 1.53l1.47-2.57Zm78.92 8.37c2.64 0 5.28-2.07 7.18-4.28a2.2 2.2 0 0 0-.86-.8l-.18.2c-1.66 1.95-3.8 3.48-5.46 3.48-1.41 0-2.27-.92-1.23-2.75l.25-.43c1.47.6 4.3.3 6.07-2.7l.3-.54c1.24-2.14.07-3.73-1.83-3.73-1.9 0-3.38.97-4.36 2.69l-2.27 3.85s-.06 0-.06-.06l-.19.18c-1.65 1.96-3.31 3.49-4.35 3.49-.5 0-.8-.37-.25-1.29l3.38-5.87c.98-1.77.06-3.05-1.23-3.05-.98 0-2.09.55-3.25 1.77l3.74-6.42h-2.4L138.77 181c-.06-.06-.18-.12-.25-.18l-.18.18c-1.66 1.96-3.31 3.49-4.36 3.49-.49 0-.8-.37-.24-1.29l4.97-8.68h1.9l.68-1.1h-1.9l2.2-3.8h-2.33l-2.2 3.8h-2.1l-.67 1.1h2.15l-4.67 8.07c-.98 1.71-.3 3.3 1.6 3.3 1.16 0 2.4-.73 3.68-1.83l-.92 1.59h2.33l3.56-6.12c3.56-4.46 5.16-3.91 4.18-2.2l-3.01 5.26c-.98 1.71-.3 3.3 1.6 3.3 1.4 0 3-1.1 4.47-2.56 0 1.52 1.17 2.62 3.07 2.62Zm1.9-8.37c1.36-2.33 3.75-1.9 2.34.49l-.3.55c-1.11 1.9-2.65 1.83-3.5 1.53l1.47-2.57Zm68.68 3.3-.18.18c-1.66 1.96-3.32 3.49-4.36 3.49-.5 0-.8-.37-.25-1.29l7.86-13.57h-2.33l-3.44 5.87a2.53 2.53 0 0 0-2.15-1.22c-1.23 0-3 .97-3.99 2.69l-2.27 3.91c-.06 0-.12-.06-.12-.06l-.18.18c-1.66 1.96-3.32 3.49-4.36 3.49-.5 0-.8-.37-.25-1.29l3.38-5.87c.98-1.77.06-3.05-1.23-3.05-.98 0-2.09.55-3.25 1.7l.86-1.52h-2.34l-3.74 6.42c-.06-.06-.12-.12-.25-.12l-.18.18c-1.66 1.96-3.31 3.49-4.36 3.49-.49 0-.8-.37-.24-1.29l3.74-6.54h-1.16c.06-.98-.93-2.32-2.46-2.32-1.23 0-3 .97-3.99 2.69l-2.27 3.85-.12.12c-1.66 1.96-3.32 3.49-4.36 3.49-.49 0-.8-.37-.24-1.29l2.33-4.03c.8-1.41.43-2.2-.3-3.12l-1.3-1.6c-.3-.42-.3-.9.13-1.34l-1.23-1.34c-1.35 1.16-1.41 2.5-.62 3.54l.19.25c-1.05 1.47-2.4 3.42-3.93 5.2l.18.18c-1.9 2.2-3.56 3.6-5.4 4.4l2.95-5.01h-2.27l-.25.43c-1.22 2.14-2.64 3.73-4.48 3.73-1.6 0-1.9-1.6-.49-3.98l.68-1.16c.43.06.86.12 1.35.12 8.28 0 12.27-11.06 4.97-11.06-1.29 0-2.83.91-3.87 2.69l-3.62 6.23a3.8 3.8 0 0 1-2.09-3.3c0-1.1.5-2.14 1.48-2.94l-.74-1.34a5.24 5.24 0 0 0-2.4 4.34 5.2 5.2 0 0 0 2.95 4.59l-.67 1.22c-1.66 2.81-1.35 5.93 1.96 5.93.98 0 1.84-.3 2.52-.73l-.61 1.04c-3.13.98-5.1 2.2-5.1 3.97 0 2.2 3.44 2.7 5.1-.18l1.77-3.06c2.4-.73 4.8-2.38 7.37-5.38-.06-.06-.06-.12-.12-.24 1.04-1.23 1.9-2.39 3.68-4.77l.3.36c.31.37.44.86.13 1.35l-2.46 4.28c-.98 1.71-.3 3.3 1.6 3.3 1.16 0 2.45-.73 3.68-1.83 0 1.04.68 1.83 2.03 1.83.92 0 2.08-.61 3.25-1.53.12.92.86 1.53 2.02 1.53 1.1 0 2.34-.67 3.5-1.71l-.86 1.47h2.34l3.56-6.18c3.55-4.46 5.15-3.85 4.1-2.14l-3 5.26c-.98 1.71-.3 3.3 1.6 3.3 1.22 0 2.57-.86 3.92-2.02-.12 1.16.62 2.02 2.03 2.02.92 0 2.09-.61 3.25-1.53.12.92.86 1.53 2.03 1.53 1.9 0 4.1-2.08 6.07-4.28-.24-.12-.67-.49-.98-.61Zm-47.8-8.68c.67-1.17 1.47-1.72 2.08-1.72 3.68 0 1.1 7.53-4.97 7.53h-.5l3.38-5.81Zm-4.98 17.49c-.49.85-1.29.73-1.29.12 0-.62.55-1.29 2.33-1.96l-1.04 1.84Zm24.37-8.44c-1.42 2.2-2.83 3.24-3.75 3.24-.49 0-.8-.37-.24-1.29l3.25-5.62c1.23-2.14 3.74-1.6 2.58.49l-1.84 3.18Zm22.52-.13c-1.41 2.33-2.82 3.37-3.8 3.37-.5 0-.8-.37-.25-1.29l3.25-5.62c1.23-2.14 3.74-1.6 2.58.49l-1.78 3.05Zm-71.87 21.78-.18.18c-1.66 1.95-3.31 3.48-4.36 3.48-.49 0-.8-.37-.24-1.28l3.37-5.87c.98-1.78.06-3.06-1.23-3.06-.98 0-2.08.55-3.25 1.71l.86-1.53h-2.33l-3.75 6.48c-.12-.06-.18-.12-.3-.18l-.19.18a4.79 4.79 0 0 1-3.5 1.72l2.22-3.8c1.4-2.44.12-4.7-2.1-4.7-1.77 0-3.18.73-4.53 3.06l-1.17 1.95-.98 1.71c-.06-.06-.12-.06-.19-.12l-.18.18c-1.9 2.2-3.56 3.61-5.4 4.4l6.38-10.88h-2.33l-4.11 7.16c-1.78 1.65-3.2 2.57-3.62 2.38-.56-.24 0-1.1.3-1.59l4.55-7.89h-2.34l-3.74 6.42c-.06-.06-.12-.06-.18-.12l-.19.19c-1.66 1.95-3.31 3.48-4.36 3.48-.49 0-.8-.37-.24-1.28l3.38-5.87c.98-1.78.06-3.06-1.23-3.06-.98 0-2.09.55-3.26 1.71l.86-1.53h-2.33l-3.74 6.42c-.06-.06-.13-.12-.25-.12l-.18.18c-1.66 1.96-3.32 3.49-4.36 3.49-.49 0-.8-.37-.24-1.28l3.74-6.55h-1.35c.06-.97-.92-2.32-2.46-2.32-1.22 0-3 .98-3.98 2.69l-2.4 4.16a5.66 5.66 0 0 0-.49-.3l-.18.18c-1.66 1.95-3.75 3.48-6.02 3.48-1.6 0-2.58-1.59-1.16-3.97l.67-1.16c.43.06.86.12 1.35.12 2.46 0 5.28-1.29 7.12-4.47.68-1.16.92-2.2.92-3.12 0-2.07-1.35-3.48-3.07-3.48-1.29 0-2.82.92-3.86 2.69l-3.63 6.24a3.8 3.8 0 0 1-2.08-3.3c0-1.1.49-2.15 1.47-2.94l-.74-1.34a5.23 5.23 0 0 0-2.39 4.34c0 1.83 1.04 3.6 2.95 4.58l-.68 1.22c-1.65 2.82-.67 5.94 2.64 5.94 2.58 0 4.54-1.16 6.14-2.7-.5 1.47.24 2.7 1.9 2.7.92 0 2.09-.62 3.25-1.53.13.91.86 1.53 2.03 1.53 1.1 0 2.33-.68 3.5-1.72l-.86 1.47h2.33l3.56-6.17c3.56-4.47 5.15-3.86 4.11-2.14l-3 5.25c-.99 1.72-.31 3.3 1.59 3.3 1.23 0 2.64-.85 3.99-2.07-.3 1.28.3 2.08 1.47 2.08 1.1 0 2.4-.92 3.44-1.9l-1.29 2.2c-3.13.92-5.16 2.2-5.16 3.98 0 2.2 3.44 2.69 5.1-.19l1.78-3.05c1.96-.61 3.86-1.84 5.89-3.8-.3 3.25 3.99 3.98 6.63.68h.49c.86 0 2.02-.3 3.07-.92l-1.54 2.7h2.33l3.56-6.19c3.56-4.46 5.16-3.85 4.12-2.13l-3.01 5.25c-.98 1.72-.3 3.3 1.6 3.3 1.9 0 4.1-2.07 6.07-4.28-.06-.18-.49-.55-.8-.67Zm-57.93-8.7c.67-1.15 1.47-1.7 2.09-1.7.85 0 1.28.55 1.28 1.4 0 2.14-2.64 6.06-6.26 6.06h-.49l3.38-5.75Zm8.22 9.06c-1.4 2.2-2.82 3.24-3.74 3.24-.5 0-.8-.37-.25-1.28l3.26-5.63c1.22-2.14 3.74-1.59 2.57.49l-1.84 3.18Zm17.68 8.44c-.5.85-1.3.73-1.3.12s.56-1.28 2.34-1.96l-1.04 1.84Zm15.7-8.69h-.12c-.73 0-1.34.62-1.34 1.41 0 .3.06.55.24.8v.06c-1.1 1.9-3.74 1.53-2.4-.92l1.79-3.06 1.1-1.9c1.66-2.75 3.87-1.64 2.46.74l-1.72 2.88Zm70.28.68a1.37 1.37 0 0 0-.86-.8l-.19.19c-.85.97-1.9 1.9-2.82 2.5.74-2.2.55-5.62 2.03-8.56l-1.72-.91c-.98 1.34-3.07 4.34-5.16 6.78l-.18.19c-1.66 1.95-3.31 3.48-4.36 3.48-.49 0-.98-.49-.98-1.59V204c1.66.19 3.38-.85 4.48-2.75l.61-1.1c2.15-3.73-1.35-4.95-3.74-2.75l3.31-5.75h-2.33l-6.63 11.5c-.12-.12-.3-.25-.43-.3l-.18.18c-1.66 1.95-3.8 3.48-5.46 3.48-1.41 0-2.27-.92-1.23-2.75l2.4-4.16c1.34-2.32 3.74-1.9 2.33.5l-.31.54h1.9l.3-.55c1.24-2.14.07-3.73-1.83-3.73-1.9 0-3.38.98-4.36 2.7l-2.27 3.9c-.06 0-.12-.06-.12-.06l-.19.19c-1.65 1.95-3.31 3.48-4.35 3.48-.5 0-.8-.36-.25-1.28l4.97-8.69h-2.33l-4.11 7.22c-1.78 1.6-3.13 2.5-3.56 2.32-.56-.24 0-1.1.3-1.59l4.55-7.88h-2.34l-4.54 7.76c-.49.43-1.04.86-1.47 1.23.74-2.2.55-5.63 2.02-8.57l-1.71-.91c-.99 1.34-6.32 8.44-8.47 10.88.18.3.55.55.86.8 1.35-1.53 5.77-7.22 6.56-8.32-.92 2.38-.43 6.73-2.64 6.73-.8 0-1.1-.86-1.1-.86l-1.47.73s.43 1.9 2.57 1.9c.25 0 .43 0 .68-.06h.06a8.05 8.05 0 0 0 3.44-1.47c0 .92.55 1.53 1.53 1.53 1.29 0 2.7-1.16 3.8-2.2-.24 1.22.5 2.2 1.97 2.2s3.07-1.16 4.6-2.7c0 1.54 1.23 2.7 3.13 2.7s3.75-1.04 5.4-2.45l-1.28 2.27h2.33l2.64-4.59v1.84c0 1.95.36 3 2.27 3 1.9 0 4.1-2.09 6.07-4.29 1.35-1.53 2.46-3.12 3.32-4.22-.92 2.39-.43 6.73-2.64 6.73-.8 0-1.1-.86-1.1-.86l-1.48.74s.43 1.9 2.58 1.9c.24 0 .43 0 .67-.07h.06c2.34-.43 4.73-2.32 6.45-4.34Zm-15.47-1.84.68-1.16c2.7-3.73 4.54-2.69 3.68-1.28l-1.1 1.9c-.68 1.22-2.7 2.07-3.26.54Zm15.41 3.43c-.74 0-1.35.61-1.35 1.34 0 .74.55 1.35 1.35 1.35.73 0 1.35-.55 1.35-1.35 0-.73-.62-1.34-1.35-1.34Zm.12-.92h2.33l7.3-12.66h-2.33l-7.3 12.66ZM49.22 169.75c0 .18-.06.37-.12.55-.06.18-.19.37-.31.49s-.3.25-.5.37c-.18.06-.42.12-.67.12-.3 0-.55-.06-.8-.18-.24-.13-.48-.25-.67-.43-.18-.19-.24-.37-.37-.61a3.08 3.08 0 0 1-.12-.8c0-.55.12-.98.3-1.47.2-.42.44-.85.8-1.16.13-.12.31-.3.5-.43.18-.12.36-.24.55-.3.18-.06.3-.19.43-.25.12-.06.18-.06.24-.12l.86 1.22c-.12.06-.3.13-.49.25a2.5 2.5 0 0 0-.55.3c-.19.13-.3.31-.43.5-.12.18-.18.36-.18.6.42 0 .73.13 1.04.37.37.19.49.55.49.98Zm4.85 0c0 .18-.06.37-.12.55-.07.18-.19.37-.31.49s-.3.25-.5.37c-.18.06-.42.12-.67.12-.3 0-.55-.06-.8-.18-.24-.13-.49-.25-.67-.43-.12-.19-.25-.37-.37-.61a3.08 3.08 0 0 1-.12-.8c0-.55.12-.98.3-1.47.19-.42.43-.85.8-1.16.13-.12.31-.3.5-.43.18-.12.36-.24.55-.3.18-.06.3-.19.43-.25.12-.06.18-.06.24-.12l.86 1.22c-.12.06-.3.13-.49.25a2.5 2.5 0 0 0-.55.3c-.19.13-.31.31-.43.5a.96.96 0 0 0-.19.6c.43 0 .74.13 1.05.37.3.19.49.55.49.98Zm162.69 36.02c0-.19.06-.37.13-.55.06-.19.18-.37.3-.5.13-.12.3-.24.5-.36.18-.06.42-.12.67-.12.3 0 .55.06.8.18.24.12.49.25.67.43.18.18.25.37.37.61.06.25.12.5.12.8 0 .55-.12.98-.3 1.46-.19.43-.43.86-.8 1.17a3.41 3.41 0 0 1-1.05.73c-.18.06-.3.18-.42.24-.13.06-.19.06-.25.13l-.86-1.23c.12-.06.3-.12.5-.24.18-.06.36-.18.54-.3.19-.13.31-.31.43-.5a.96.96 0 0 0 .19-.6 1.6 1.6 0 0 1-1.05-.37c-.3-.19-.49-.56-.49-.98Zm-4.78 0c0-.19.06-.37.12-.55.06-.19.18-.37.3-.5.13-.12.31-.24.5-.36.18-.06.43-.12.67-.12a2.4 2.4 0 0 1 1.47.61c.13.18.25.37.37.61.06.25.13.5.13.8 0 .55-.13.98-.31 1.46-.19.43-.43.86-.8 1.17a3.04 3.04 0 0 1-1.04.73c-.19.06-.31.18-.43.24-.13.06-.19.06-.25.13l-.86-1.23c.19-.06.31-.12.5-.24.18-.06.36-.18.55-.3.18-.13.3-.31.43-.5.12-.18.18-.36.18-.6-.43 0-.74-.13-1.04-.37-.37-.19-.5-.56-.5-.98Z" />
  </svg>
  <svg id="hero-text-tablet" viewbox="0 0 461 350" fill="none">
    <path fill="#766458" fill-rule="evenodd"
      d="m165.74 70-.2.2a6.26 6.26 0 0 1-4.52 2.2l2.81-4.9c1.8-3.1.1-6.1-2.7-6.1-2.31 0-4.12.9-5.82 3.9l-1.51 2.6-1.2 2.1-.2.2c-2.21 2.5-4.32 4.5-5.62 4.5-.7 0-1-.5-.3-1.6l6.42-11.2h2.4l.9-1.4h-2.5l2.8-4.9h-3l-2.81 4.9h-2.7l-.91 1.4h2.7l-6.01 10.4c-1.3 2.2-.4 4.3 2 4.3 1.71 0 3.72-1.3 5.52-3.1 0 3.8 5.32 4.6 8.53.5h.7c1.8 0 4.62-1.1 6.12-2.9 0-.5-.5-.9-.9-1.1Zm-6.42.2h-.1a1.8 1.8 0 0 0-1.5 2.8v.1c-1.41 2.4-4.82 2-3.12-1.2l2.31-3.9 1.4-2.4c2.11-3.6 5.02-2.2 3.22.9l-2.21 3.7Zm48.06-.2-.2.2c-2.21 2.5-4.92 4.5-7.03 4.5-1.8 0-2.9-1.2-1.6-3.6l.3-.5c1.9.8 5.62.4 7.82-3.5l.4-.7c1.6-2.8.1-4.8-2.4-4.8-2.41 0-4.32 1.3-5.62 3.5l-2.91 5-.2.2c-2.21 2.5-4.32 4.5-5.62 4.5-.7 0-1-.5-.3-1.6l4.31-7.6c1.3-2.3.1-3.9-1.6-3.9-1.3 0-2.71.7-4.22 2.3l4.82-8.3h-3.01L181.99 70l-.2.2c-2.2 2.5-4.31 4.5-5.62 4.5-.7 0-1-.5-.3-1.6l6.42-11.2h2.41l.9-1.4h-2.5l2.8-4.9h-3l-2.81 4.9h-2.71l-.9 1.4h2.7l-6.02 10.4c-1.3 2.2-.4 4.3 2.01 4.3 1.2 0 2.5-.6 3.81-1.6l-.8 1.3h3.01l4.51-7.9c4.62-5.8 6.63-5 5.42-2.8l-3.91 6.8c-1.3 2.2-.4 4.3 2 4.3 1.81 0 3.82-1.4 5.62-3.2.1 1.9 1.7 3.2 4.12 3.2 3.4 0 6.82-2.6 9.23-5.5.1-.6-.4-1-.8-1.2Zm-5.72-4.2c1.7-3 4.81-2.5 3 .6l-.4.7c-1.4 2.4-3.4 2.4-4.51 2l1.9-3.3Zm114.97 4.4.2-.2c.5.1 1 .6 1.1 1.1-2.2 2.6-5.21 5-8.32 5.4h-.1c-.3.1-.5.1-.8.1-2.81 0-3.32-2.4-3.32-2.4l1.91-1s.4 1.1 1.4 1.1c1.93 0 2.27-2.45 2.63-5 .19-1.31.38-2.65.79-3.7-.36.45-.75.97-1.18 1.53a88.07 88.07 0 0 1-3.14 3.97c-2.5 2.9-5.32 5.5-7.82 5.5-1.91 0-2.91-1.3-2.61-2.9-1.4 1.4-3.31 2.9-4.92 2.9-1.7 0-2.4-1.4-1.6-3.5-1.1.6-2.41.9-3.31.9h-.7c-3.22 4.1-8.63 3.3-8.53-.6-2.01 1.8-4.52 3.2-6.93 3.2-2.5 0-4.01-1.3-4.11-3.2-2.5 2.4-4.92 3.8-7.32 4.6l-2.31 3.9c-2.2 3.7-6.62 3.1-6.62.2 0-2.2 2.6-3.9 6.62-5.1l.7-1.2c-1.1.6-2.1 1-2.9 1-1.72 0-2.62-1-2.62-2.4-1.6 1.4-3.3 2.4-4.81 2.4-2.41 0-3.31-2.1-2.01-4.3l3.21-5.5c.3-.6.2-1.2-.2-1.7l-.4-.5c-2.4 3.2-3.61 4.7-5.02 6.4a9.01 9.01 0 0 1-6.12 2.9h-.7c-3.21 4.1-8.53 3.3-8.53-.5-2.5 2.3-4.81 3.8-7.22 4.5l-2.3 3.9c-2.22 3.7-6.63 3.1-6.63.2 0-2.2 2.6-3.9 6.62-5.1l.8-1.4c-1.1.6-2.1 1-2.9 1-2.41 0-3.32-2.1-2.01-4.3l4.21-7.3c1.2-2.2 3.51-3.5 5.12-3.5 1.8 0 3.1 1.7 3.1 2.9h1.81L222.13 76c2.41-1 4.52-2.8 7.03-5.7l.2-.2 1.2-2.1 1.5-2.6c1.71-3 3.52-3.9 5.82-3.9 2.81 0 4.52 3 2.71 6.1l-2.8 4.9c1.5 0 3.1-.7 4.5-2.2l.2-.2c2.02-2.3 3.82-4.8 5.13-6.7l-.3-.3c-1-1.4-.9-3.1.8-4.6l1.6 1.7c-.6.5-.6 1.2-.2 1.7l1.7 2c.91 1.2 1.41 2.3.4 4.1l-3 5.2c-.7 1.1-.4 1.6.3 1.6 1.3 0 3.41-2 5.62-4.5l.2-.2 2.9-5c1.21-2.2 3.52-3.5 5.13-3.5 1.8 0 3.1 1.7 3.1 2.9h1.81L260.95 76c2.4-1 4.51-2.8 7.02-5.7l.2-.2 2.91-5c1.3-2.2 3.21-3.5 5.62-3.5 2.5 0 4.01 2 2.4 4.8l-.4.7c-2.2 3.9-5.91 4.3-7.82 3.5l-.3.5c-1.3 2.4-.2 3.6 1.6 3.6 2.11 0 4.82-2 7.03-4.5l.2-.2 1.2-2.1 1.5-2.6c1.71-3 3.52-3.9 5.83-3.9 2.8 0 4.51 3 2.7 6.1l-2.8 4.9c1.5 0 3.1-.7 4.51-2.2l.2-.2 4.72-8.1h3l-5.81 10.2-.04.06-.05.09c-.4.7-.97 1.67-.31 1.95.6.2 2.3-.9 4.61-3l5.32-9.3h3l-6.41 11.2c-.7 1.1-.4 1.6.3 1.6 1.3 0 3.41-2 5.62-4.5l.2-.2c2.6-2.96 5.1-6.52 6.42-8.38l.01-.02.29-.4 2.2 1.2c-1.14 2.35-1.49 4.84-1.8 7.08-.2 1.49-.4 2.86-.8 4.02a22 22 0 0 0 3.61-3.3Zm-39.83-3.8c1.8-3.1-1.3-3.6-3-.6l-1.92 3.3c1.1.4 3.12.4 4.52-2l.4-.7Zm-62 15.1c0 .9 1 1 1.6-.1l1.4-2.5c-2.3.9-3 1.8-3 2.6Zm2.7-8.4c-.7 1.1-.4 1.6.3 1.6 1.21 0 3.12-1.4 4.92-4.3l2.31-4c1.5-2.7-1.7-3.4-3.3-.6l-4.22 7.3Zm18.67-2.9h.1l2.2-3.7c1.81-3.1-1.1-4.5-3.2-.9l-1.4 2.4-2.32 3.9c-1.7 3.2 1.7 3.6 3.11 1.2V73a1.8 1.8 0 0 1 1.5-2.8Zm17.36 11.3c0 .9 1 1 1.6-.1l1.4-2.5c-2.3.9-3 1.8-3 2.6Zm2.7-8.4c-.7 1.1-.4 1.6.3 1.6 1.2 0 3.12-1.4 4.92-4.3l2.3-4c1.51-2.7-1.7-3.4-3.3-.6l-4.22 7.3Zm29.8-2.9h.1l2.2-3.7c1.81-3.1-1.1-4.5-3.2-.9l-1.4 2.4-2.31 3.9c-1.71 3.2 1.7 3.6 3.1 1.2V73a1.8 1.8 0 0 1 1.5-2.8Zm-155.5-3.4h-29v2h29v-2Zm198.74 0h29v2h-29v-2Z"
      clip-rule="evenodd" />
    <path fill="#81B3D3" fill-rule="evenodd"
      d="M163.53 0h7.73l-1.2 44.9H155.5l-2.01-18.5-2 18.5h-14.66L135.75 0h7.63l.6 37.2h.8L149.7 0h7.62l4.92 37.2h.8l.5-37.2Zm31.9 37.2V45h-20.96V0h20.97v7.7h-13.35v10.8h10.64v7.7h-10.64v10.9h13.35v.1Zm21.48 7.8v-7.8h-10.74V0h-7.62v45h18.36Zm16.25-16.6 7.72-1.8v13.6c0 2.6-2.2 4.7-4.71 4.7h-11.54c-2.6 0-4.71-2.2-4.71-4.7V4.7c0-2.6 2.1-4.7 4.71-4.7h11.54c2.5 0 4.71 2.1 4.71 4.7v9.1l-7.72 1.8v-8h-5.52v29.5h5.52v-8.7Zm33.3-23.7c0-2.6-2.2-4.7-4.7-4.7H250.2a4.7 4.7 0 0 0-4.71 4.7v35.4c0 2.5 2.1 4.7 4.71 4.7h11.54c2.51 0 4.72-2.1 4.72-4.7V4.7Zm-13.24 3h5.52v29.5h-5.52V7.7ZM291.55 0h7.62v44.9h-7.62V22.8l-3.11 11.4h-7.53l-3-11.4v22.1h-7.63V0h7.62l6.83 21.7L291.55 0Zm32.4 45v-7.9h-13.34V26.2h10.63v-7.7h-10.63V7.7h13.34V0H303v45h20.96Z"
      clip-rule="evenodd" />
    <path fill="#fff" fill-rule="evenodd"
      d="M246.1 215.7c24.08 0 41.54-17.1 41.54-41.3 0-22.6-19.97-38.5-41.54-38.5s-41.53 15.9-41.53 38.5c0 24.2 17.45 41.3 41.53 41.3Zm-.1-18.9c-11.64 0-21.17-9.4-21.17-22.3 0-10.3 9.63-19.8 21.17-19.8 11.64 0 21.17 9.5 21.17 19.8 0 12.9-9.53 22.3-21.17 22.3ZM31.5 152.6c4.82 0 9.33 2 12.94 5l7.73-15c-6.62-3.8-15.95-6.2-23.48-6.2-15.05 0-25.88 9.9-25.88 25.1 0 14.5 8.03 17.6 20.27 21.2l.75.21c4.3 1.2 11.08 3.1 11.08 8.29 0 5.2-4.81 7.5-9.43 7.5-6.72 0-12.44-3.4-17.35-7.7L0 206.5c7.62 5.3 16.96 8.5 26.39 8.5 7.52 0 15.35-2 21.27-7 5.91-5 7.72-12.7 7.72-20.1 0-12.1-8.13-17.3-18.56-20.4L31.8 166c-3.3-1-8.62-2.7-8.62-7.1 0-4.2 4.71-6.3 8.32-6.3Zm60.4 14.7v-12.5l23.27.1v-16.5H72.44v74.8h42.73v-16.5H91.9v-12.9h21.97v-16.5H91.9Zm37.72-28.9h27.7c20.86 0 38.12 16.4 38.12 37.4s-17.36 37.4-38.13 37.4h-27.69v-74.8Zm19.56 58.3h4.42c11.64 0 21.57-6.4 21.57-20.9 0-13.4-8.83-20.9-21.37-20.9h-4.62v41.8Zm148.79-58.3h19.56l35.72 45.8h.2v-45.8h19.56v74.8h-19.56l-35.72-45.9h-.2v45.9h-19.56v-74.8Zm105.24 74.8 5.22-13h26.89l4.91 13H461l-28.3-74.8h-21.26l-28.9 74.8h20.67Zm18.66-51.7h.2l8.03 23.8h-16.25l8.02-23.8ZM80.46 277.6c0 .3-.1.6-.2.9-.1.3-.3.6-.5.8-.2.2-.5.4-.8.6-.3.1-.7.2-1.1.2-.5 0-.91-.1-1.31-.3-.4-.2-.8-.4-1.1-.7-.24-.24-.36-.48-.5-.76l-.1-.24c-.1-.4-.2-.8-.2-1.3 0-.9.2-1.6.5-2.4.3-.7.7-1.4 1.3-1.9.2-.2.5-.5.8-.7.3-.2.6-.4.9-.5.2-.06.34-.17.48-.26a1.94 1.94 0 0 1 .42-.22.52.52 0 0 0 .2-.12l1.41 2-.2.1c-.18.07-.39.16-.6.3-.3.1-.6.3-.9.5-.3.2-.5.5-.7.8-.2.3-.3.6-.3 1 .7 0 1.2.2 1.7.6.6.3.8.9.8 1.6Zm7.93 0c0 .3-.1.6-.2.9-.1.3-.3.6-.5.8-.2.2-.5.4-.8.6-.3.1-.71.2-1.11.2-.5 0-.9-.1-1.3-.3-.4-.2-.8-.4-1.1-.7-.2-.3-.41-.6-.61-1-.1-.4-.2-.8-.2-1.3 0-.9.2-1.6.5-2.4.3-.7.7-1.4 1.3-1.9.2-.2.5-.5.8-.7.3-.2.6-.4.91-.5.19-.06.34-.17.47-.26a1.94 1.94 0 0 1 .42-.22.52.52 0 0 0 .21-.12l1.4 2-.2.1a3.7 3.7 0 0 0-.6.3c-.3.1-.6.3-.9.5-.3.2-.5.5-.7.8-.2.3-.3.6-.3 1 .7 0 1.2.2 1.7.6.5.3.8.9.8 1.6Zm275.7 18.5.3-.3c.29.12.64.37.97.6.24.16.46.32.63.4-3.2 3.6-6.82 7-9.93 7-1.9 0-3.11-1-3.31-2.5-1.9 1.5-3.81 2.5-5.32 2.5-2.3 0-3.51-1.4-3.31-3.3-2.2 1.9-4.42 3.3-6.42 3.3-3.11 0-4.21-2.6-2.61-5.4l4.92-8.6c1.7-2.8-.9-3.8-6.72 3.5l-5.82 10.1h-3.82l1.4-2.4c-1.9 1.7-3.9 2.8-5.71 2.8-1.9 0-3.11-1-3.31-2.5-1.9 1.5-3.81 2.5-5.32 2.5-2.2 0-3.31-1.3-3.31-3-2 1.8-4.11 3-6.02 3-3.1 0-4.21-2.6-2.6-5.4l4-7c.5-.8.3-1.6-.2-2.2l-.5-.6-.46.63c-2.6 3.48-3.94 5.28-5.56 7.17l.09.2a.5.5 0 0 0 .11.2c-4.21 4.9-8.12 7.6-12.03 8.8l-2.92 5c-2.7 4.7-8.32 3.9-8.32.3 0-2.9 3.2-4.9 8.32-6.5l1-1.7c-1.1.7-2.5 1.2-4.1 1.2-5.42 0-5.92-5.1-3.21-9.7l1.1-2a8.47 8.47 0 0 1-4.82-7.5c0-2.6 1.2-5.2 3.92-7.1l1.2 2.2a6.1 6.1 0 0 0-2.4 4.8c0 2.1 1.2 4.2 3.4 5.4l5.92-10.2c1.7-2.9 4.22-4.4 6.32-4.4 11.94 0 5.42 18.1-8.12 18.1-.8 0-1.5-.1-2.21-.2l-1.1 1.9c-2.31 3.9-1.81 6.5.8 6.5 3 0 5.31-2.6 7.32-6.1l.4-.7h3.71l-4.81 8.2c3-1.3 5.72-3.6 8.83-7.2l-.3-.3a98.98 98.98 0 0 0 5.83-7.67l.59-.83-.3-.4c-1.3-1.7-1.2-3.9 1-5.8l2 2.2c-.7.7-.7 1.5-.2 2.2l2.11 2.6c1.2 1.5 1.8 2.8.5 5.1l-3.8 6.6c-.91 1.5-.4 2.1.4 2.1 1.7 0 4.4-2.5 7.12-5.7l.2-.2 3.71-6.3c1.6-2.8 4.51-4.4 6.52-4.4 2.5 0 4.11 2.2 4.01 3.8h1.91l-6.12 10.7c-.9 1.5-.4 2.1.4 2.1 1.7 0 4.42-2.5 7.13-5.7l.3-.3c.2 0 .3.1.4.2l6.12-10.5h3.8l-1.4 2.5c1.91-1.9 3.72-2.8 5.32-2.8 2.1 0 3.61 2.1 2 5l-5.5 9.6c-.91 1.5-.41 2.1.4 2.1 1.7 0 4.4-2.5 7.12-5.7l.3-.3s.1.1.2.1l3.7-6.4c1.61-2.8 4.52-4.4 6.53-4.4 1.6 0 2.8.9 3.51 2l5.62-9.6h3.81l-12.84 22.2c-.9 1.5-.4 2.1.4 2.1 1.7 0 4.42-2.5 7.13-5.7Zm-74.45-17.3c-1 0-2.3.9-3.4 2.8l-5.53 9.5h.8c9.94 0 14.15-12.3 8.13-12.3ZM276 310.4c0 1 1.3 1.2 2.1-.2l1.71-3c-2.9 1.1-3.81 2.2-3.81 3.2Zm35.81-8.7c1.51 0 3.82-1.7 6.13-5.3l3-5.2c1.91-3.4-2.2-4.3-4.2-.8l-5.33 9.2c-.9 1.5-.4 2.1.4 2.1Zm36.72 0c1.6 0 3.92-1.7 6.22-5.5l2.91-5c1.91-3.4-2.2-4.3-4.21-.8l-5.32 9.2c-.9 1.5-.4 2.1.4 2.1Zm-239.57-26.2c7.52 0 7.02 9.6-.7 12.2 7.32 4.9 2 18.5-9.34 18.5-13.34 0-15.75-14.6-7.72-19.7l1.5 1.9c-3.71 2.4-4.41 7.8-1.8 11.4.5-.59.86-1.18 1.27-1.82l.23-.38 10.23-17.7c1.71-2.9 4.22-4.4 6.33-4.4ZM93.3 302c1.5.8 3.21 1.3 5.52 1.3 9.23 0 12.74-13.1 3.81-15l-1-.1-6.42 11.1c-.6 1-1.2 1.9-1.9 2.7Zm12.75-21.3-3.11 5.3c3.9-.1 6.02-.9 7.52-3.7 1.9-3.6-1.6-6.4-4.41-1.6Zm37.52 23.4c-2.51 0-3.72-1.9-3.11-4.1-2.71 2.3-5.82 4.1-9.03 4.3-3.21 0-5.22-2-5.12-4.6-2.7 2.6-6.12 4.6-9.43 4.6-4.51 0-6.62-3.8-4.21-7.8l4.01-6.8c1.6-2.8 4.01-4.4 7.12-4.4 3.11 0 5.02 2.6 3.01 6.1l-.5.9c-2.9 4.9-7.52 5.4-9.93 4.4l-.4.7c-1.7 3-.3 4.5 2 4.5 2.71 0 6.22-2.5 8.93-5.7l.3-.3c.05.05.1.08.16.1.05.02.1.05.14.1l3.82-6.5c1.6-2.8 4.01-4.4 7.12-4.4 3.11 0 5.02 2.6 3.01 6.1l-.5.9h-3.11l.5-.9c2.3-3.9-1.6-4.6-3.81-.8l-3.91 6.8c-1.71 3-.3 4.5 2 4.5 2.71 0 6.22-2.5 8.93-5.7l.3-.3c.2.1.4.2.6.4l3.82-6.6c1.6-2.8 4.51-4.4 6.52-4.4 2.5 0 4.11 2.2 4.01 3.8h2.2l-6.11 10.7c-.9 1.5-.4 2.1.4 2.1 1.7 0 4.41-2.5 7.12-5.7l.3-.3c.05.05.1.07.15.1.05.03.1.05.15.1l6.02-10.4h3.82l-7.43 12.9-.03.05c-.5.8-1.35 2.16-.47 2.55.7.3 2.91-1.2 5.82-3.8l6.72-11.8h3.81l-8.12 14.2c-.9 1.5-.4 2.1.4 2.1 1.7 0 4.41-2.5 7.12-5.7l.1-.2-.1-.1c2.82-3.3 5.64-7.23 7.44-9.73l.99-1.37 2.8 1.5c-1.47 2.94-1.92 6.18-2.34 9.07-.25 1.84-.5 3.53-.96 4.93 1.5-1 3.2-2.5 4.61-4.1l.3-.3h.1l3.72-6.3c1.6-2.8 4-4.4 7.12-4.4 3.1 0 5.01 2.6 3 6.1l-.5.9c-2.9 4.9-7.52 5.4-9.93 4.4l-.4.7c-1.7 3-.3 4.5 2.01 4.5 2.7 0 6.22-2.5 8.93-5.7l.3-.3c.5.2 1.1.8 1.4 1.3-3.1 3.6-7.42 7-11.73 7-3.11 0-5.02-1.8-5.12-4.3-2.4 2.1-5.12 3.8-7.93 4.2h-.1c-.4.1-.7.1-1.1.1-3.51 0-4.21-3.1-4.21-3.1l2.4-1.2s.5 1.4 1.81 1.4c2.4 0 2.85-3.12 3.32-6.36.24-1.64.49-3.32 1-4.64l-1.4 1.83a80 80 0 0 1-3.92 4.97c0 .05.02.08.05.1.02.02.05.05.05.1-3.21 3.6-6.82 7-9.93 7-2.41 0-3.62-1.6-3.22-3.6-1.8 1.7-4.1 3.6-6.22 3.6-1.9 0-2.8-1.4-2.4-3.4-2.21 2-4.42 3.4-6.43 3.4-1.9 0-3.1-1-3.3-2.5-1.91 1.5-3.82 2.5-5.32 2.5Zm58.89-12.9c2.3-3.9-1.6-4.6-3.81-.8l-2.41 4.2c1.4.5 3.91.6 5.72-2.5l.5-.9Zm-52.87-.7-5.32 9.2c-.9 1.5-.4 2 .4 2.1 1.5 0 3.81-1.7 6.12-5.3l3.01-5.2c1.9-3.4-2.2-4.3-4.21-.8Zm-25.79.7c2.31-3.9-1.6-4.6-3.8-.8l-2.42 4.2c1.4.5 3.92.6 5.72-2.5l.5-.9Zm125.21 12.9c4.31 0 8.63-3.4 11.74-7-.3-.5-.9-1.1-1.4-1.3l-.3.3c-2.72 3.2-6.23 5.7-8.94 5.7-2.3 0-3.7-1.5-2-4.5l.4-.7c2.4 1 7.02.5 9.93-4.4l.5-.9c2-3.5.1-6.1-3-6.1-3.12 0-5.53 1.6-7.13 4.4l-3.71 6.3s-.1 0-.1-.1l-.3.3c-2.71 3.2-5.42 5.7-7.13 5.7-.8 0-1.3-.6-.4-2.1l5.52-9.6c1.6-2.9.1-5-2-5-1.61 0-3.42.9-5.32 2.9l6.12-10.5h-3.92L226.84 296c-.05-.05-.13-.1-.2-.15l-.2-.15-.3.3c-2.71 3.2-5.42 5.7-7.13 5.7-.8 0-1.3-.6-.4-2.1l8.13-14.2h3.1l1.11-1.8h-3.1l3.6-6.2h-3.8l-3.62 6.2h-3.41l-1.1 1.8h3.5l-7.62 13.2c-1.6 2.8-.5 5.4 2.6 5.4 1.92 0 3.92-1.2 6.03-3l-1.5 2.6h3.8l5.82-10c5.82-7.3 8.43-6.4 6.83-3.6l-4.92 8.6c-1.6 2.8-.5 5.4 2.61 5.4 2.3 0 4.92-1.8 7.32-4.2 0 2.5 1.91 4.3 5.02 4.3Zm3.11-13.7c2.2-3.8 6.12-3.1 3.81.8l-.5.9c-1.8 3.1-4.31 3-5.72 2.5l2.41-4.2Zm-14.85 41.4-.3.3c-2.7 3.2-5.42 5.7-7.12 5.7-.8 0-1.3-.6-.4-2.1l5.52-9.6c1.6-2.9.1-5-2.01-5-1.6 0-3.41.9-5.32 2.8l1.4-2.5h-3.8L219.1 332l-.25-.15-.25-.15-.3.3a7.82 7.82 0 0 1-5.72 2.8l3.61-6.2c2.31-4 .2-7.7-3.4-7.7-2.92 0-5.22 1.2-7.43 5l-1.9 3.2-1.61 2.8a.51.51 0 0 0-.15-.1l-.03-.01a.44.44 0 0 1-.12-.09l-.3.3c-3.11 3.6-5.82 5.9-8.83 7.2l10.43-17.8h-3.81l-6.72 11.7c-2.91 2.7-5.22 4.2-5.92 3.9-.89-.4-.04-1.74.47-2.55l.03-.05 7.42-12.9h-3.81L184.4 332c-.05-.05-.1-.07-.15-.1a.51.51 0 0 1-.15-.1l-.3.3c-2.71 3.2-5.42 5.7-7.13 5.7-.8 0-1.3-.6-.4-2.1l5.52-9.6c1.6-2.9.1-5-2-5-1.61 0-3.42.9-5.32 2.8l1.4-2.5h-3.81l-6.12 10.5c-.1-.1-.2-.2-.4-.2l-.3.3c-2.71 3.2-5.42 5.7-7.13 5.7-.8 0-1.3-.6-.4-2.1l6.12-10.7h-2.2c.1-1.6-1.5-3.8-4.02-3.8-2 0-4.91 1.6-6.52 4.4l-3.91 6.8c-.3-.2-.6-.4-.8-.5l-.3.3c-2.71 3.2-6.12 5.7-9.84 5.7-2.6 0-4.21-2.6-1.9-6.5l1.1-1.9c.7.1 1.4.2 2.2.2 4.02 0 8.64-2.1 11.65-7.3 1.1-1.9 1.5-3.6 1.5-5.1 0-3.4-2.2-5.7-5.02-5.7-2.1 0-4.61 1.5-6.32 4.4l-5.91 10.2a6.22 6.22 0 0 1-3.42-5.4c0-1.8.8-3.5 2.41-4.8l-1.2-2.2c-2.71 1.9-3.92 4.5-3.92 7.1 0 3 1.71 5.9 4.82 7.5l-1.1 2c-2.71 4.6-1.1 9.7 4.31 9.7 4.22 0 7.43-1.9 10.03-4.4-.8 2.4.4 4.4 3.11 4.4 1.5 0 3.41-1 5.32-2.5.2 1.5 1.4 2.5 3.31 2.5 1.8 0 3.81-1.1 5.72-2.8l-1.4 2.4h3.8l5.83-10.1c5.82-7.3 8.42-6.3 6.72-3.5l-4.92 8.6c-1.6 2.8-.5 5.4 2.61 5.4 2 0 4.31-1.4 6.52-3.4-.5 2.1.5 3.4 2.41 3.4 1.8 0 3.91-1.5 5.62-3.1l-2.1 3.6c-5.13 1.5-8.44 3.6-8.44 6.5 0 3.6 5.62 4.4 8.33-.3l2.91-5c3.21-1 6.32-3 9.63-6.2-.5 5.3 6.52 6.5 10.84 1.1h.8c1.4 0 3.31-.5 5.02-1.5l-2.51 4.4h3.81l5.82-10.1c5.82-7.3 8.43-6.3 6.72-3.5l-4.91 8.6c-1.61 2.8-.5 5.4 2.6 5.4 3.11 0 6.73-3.4 9.94-7-.1-.3-.8-.9-1.3-1.1Zm-94.7-14.2c1.1-1.9 2.4-2.8 3.4-2.8 1.41 0 2.11.9 2.11 2.3 0 3.5-4.31 9.9-10.23 9.9h-.8l5.51-9.4ZM156 332.4c-2.31 3.6-4.62 5.3-6.12 5.3-.8 0-1.3-.6-.4-2.1l5.31-9.2c2.01-3.5 6.12-2.6 4.22.8l-3.01 5.2Zm28.9 13.8c-.81 1.4-2.12 1.2-2.12.2s.9-2.1 3.82-3.2l-1.7 3Zm25.68-14.2h-.2c-1.2 0-2.21 1-2.21 2.3 0 .5.1.9.4 1.3v.1c-1.8 3.1-6.12 2.5-3.91-1.5l2.9-5 1.81-3.1c2.71-4.5 6.32-2.7 4.01 1.2l-2.8 4.7Zm113.47-.2c.5.1 1.2.7 1.4 1.3-2.81 3.3-6.72 6.4-10.53 7.1h-.1c-.4.1-.7.1-1.1.1-3.52 0-4.22-3.1-4.22-3.1l2.4-1.2s.5 1.4 1.81 1.4c2.4 0 2.85-3.12 3.32-6.36a22.7 22.7 0 0 1 1-4.64c-.42.53-.86 1.12-1.34 1.77a79.62 79.62 0 0 1-4.08 5.13c-3.21 3.6-6.82 7-9.94 7-3.1 0-3.7-1.7-3.7-4.9v-3l-4.32 7.5h-3.81l2.1-3.7c-2.7 2.3-5.71 4-8.82 4-3.12 0-5.12-1.9-5.12-4.4-2.51 2.5-5.12 4.4-7.53 4.4-2.4 0-3.6-1.6-3.2-3.6-1.81 1.7-4.12 3.6-6.23 3.6-1.6 0-2.5-1-2.5-2.5a13.2 13.2 0 0 1-5.62 2.4h-.1c-.4.1-.7.1-1.1.1a4.18 4.18 0 0 1-4.2-3 90.04 90.04 0 0 1-2.23 2.7l-.3-.23a4.37 4.37 0 0 1-1.1-1.07c3.5-4 12.24-15.6 13.84-17.8l2.81 1.5c-1.47 2.94-1.93 6.18-2.34 9.07-.26 1.84-.5 3.53-.97 4.93a60 60 0 0 1 1-.83h.01c.46-.38.95-.78 1.4-1.17l7.42-12.7h3.81l-7.42 12.9-.03.05c-.5.8-1.36 2.16-.47 2.55.7.3 2.9-1.2 5.82-3.8l6.72-11.8h3.81l-8.12 14.2c-.9 1.5-.4 2.1.4 2.1 1.7 0 4.41-2.5 7.12-5.7l.3-.3s.1.1.2.1l3.71-6.4c1.6-2.8 4.02-4.4 7.13-4.4 3.1 0 5.01 2.6 3 6.1l-.5.9h-3.1l.5-.9c2.3-3.9-1.6-4.6-3.82-.8l-3.9 6.8c-1.71 3-.3 4.5 2 4.5 2.7 0 6.22-2.5 8.93-5.7l.3-.3c.2.1.5.3.7.5L306 313.4h3.8l-5.4 9.4c3.9-3.6 9.62-1.6 6.11 4.5l-1 1.8c-1.8 3.1-4.62 4.8-7.33 4.5v1.6c0 1.8.8 2.6 1.6 2.6 1.71 0 4.42-2.5 7.13-5.7l.3-.3c2.82-3.3 5.64-7.23 7.44-9.73l.99-1.37 2.8 1.5c-1.46 2.94-1.92 6.18-2.33 9.07-.26 1.84-.5 3.53-.97 4.93 1.5-1 3.2-2.5 4.61-4.1l.3-.3ZM248.7 337l2.22-1.1s.5 1.4 1.8 1.4c2.4 0 2.85-3.12 3.32-6.36.24-1.64.49-3.32 1-4.64a429.3 429.3 0 0 1-8.34 10.7Zm52.58-8.8-1.1 1.9c.9 2.5 4.21 1.1 5.31-.9l1.81-3.1c1.4-2.3-1.6-4-6.02 2.1Zm24.08 7.5c-1.2 0-2.2 1-2.2 2.2 0 1.2.9 2.2 2.2 2.2 1.2 0 2.2-.9 2.2-2.2 0-1.2-1-2.2-2.2-2.2Zm4.01-1.5h-3.81l11.94-20.7h3.81l-11.94 20.7Zm25.18 1.4c-.1.3-.2.6-.2.9 0 .7.3 1.3.8 1.6.5.4 1 .6 1.71.6 0 .4-.1.7-.3 1-.2.3-.4.6-.7.8-.3.2-.6.4-.9.5a3.68 3.68 0 0 1-.8.4l1.4 2c.06-.06.12-.08.2-.12a1.91 1.91 0 0 0 .43-.22c.13-.1.28-.2.47-.26.3-.1.6-.3.9-.5.3-.2.6-.5.8-.7.6-.5 1-1.2 1.31-1.9.3-.8.5-1.5.5-2.4 0-.5-.1-.9-.2-1.3l-.11-.24a2.44 2.44 0 0 0-.5-.76c-.3-.3-.7-.5-1.1-.7-.4-.2-.8-.3-1.3-.3-.4 0-.8.1-1.1.2-.3.2-.6.4-.8.6-.2.2-.4.5-.5.8Zm-7.82 0c-.1.3-.2.6-.2.9 0 .7.2 1.3.8 1.6.5.4 1 .6 1.7.6 0 .4-.1.7-.3 1-.2.3-.4.6-.7.8-.3.2-.6.4-.9.5a3 3 0 0 1-.8.4l1.4 2c.06-.06.13-.08.21-.12a2.02 2.02 0 0 0 .42-.22c.14-.1.29-.2.47-.26.3-.1.6-.3.9-.5.3-.2.61-.5.81-.7.6-.5 1-1.2 1.3-1.9.3-.8.5-1.5.5-2.4 0-.5-.1-.9-.2-1.3-.2-.4-.4-.7-.6-1-.3-.3-.7-.5-1.1-.7-.4-.2-.8-.3-1.3-.3-.4 0-.8.1-1.1.2-.3.2-.61.4-.81.6-.2.2-.4.5-.5.8Z"
      clip-rule="evenodd" />
  </svg>
  <svg id="house-mobile" viewbox="0 0 40 40" fill="none">
    <path fill="#81B3D2" d="M15.9 34.8h8.35V22.65H15.9V34.8Zm6.84-1.47h-5.32v-9.2h5.27v9.2h.05Z" />
    <path fill="#81B3D2"
      d="m38.4 21.63 1.1-1.07-5.17-5.04V1.8h-7.2v6.7l-7.16-6.92L.5 20.61l1.1 1.07 4.07-3.97v19.23H3.63v1.48H37v-1.48h-2.66V17.66l4.07 3.97ZM28.64 3.3h4.13v10.74l-4.13-4.02V3.3Zm4.18 33.58H7.23v-20.7L19.97 3.71l12.8 12.46v20.7h.05Z" />
    <path fill="#81B3D2"
      d="M16.06 15.42a4.01 4.01 0 0 0 4.02 3.97 4.03 4.03 0 0 0 4.07-3.97 3.98 3.98 0 0 0-4.07-3.92 3.94 3.94 0 0 0-4.02 3.92Zm4.02-2.54a2.59 2.59 0 0 1 2.6 2.54 2.58 2.58 0 0 1-2.6 2.55 2.59 2.59 0 0 1-2.61-2.55c0-1.37 1.2-2.54 2.6-2.54Zm-9.19 9.77H9.32v1.98h1.57v-1.98Zm3.08 0H12.4v1.98h1.57v-1.98Zm-3.08 3.05H9.32v1.98h1.57V25.7Zm3.08 0H12.4v1.98h1.57V25.7Zm13.57-3.05h-1.56v1.98h1.56v-1.98Zm3.14 0H29.1v1.98h1.57v-1.98Zm-3.14 3.05h-1.56v1.98h1.56V25.7Zm3.14 0H29.1v1.98h1.57V25.7Z" />
  </svg>
  <svg id="food-mobile" viewbox="0 0 40 40" fill="none">
    <path fill="#81B3D2"
      d="M37.74 25.85H2.26A2.23 2.23 0 0 0 0 28.03v1.77c0 1.17 1 2.13 2.26 2.13h.52v.5a5.12 5.12 0 0 0 5.2 5.02h24.04c2.89 0 5.2-2.28 5.2-5.01v-.51h.52c1.21 0 2.26-.96 2.26-2.18v-1.77c0-1.12-1-2.13-2.26-2.13Zm-2.04 6.59a3.57 3.57 0 0 1-3.63 3.49H7.93c-2 0-3.63-1.57-3.63-3.5v-.5h31.4v.5Zm2.73-2.69c0 .36-.32.66-.69.66H2.26a.68.68 0 0 1-.69-.66v-1.77c0-.3.32-.61.69-.61H37.8c.36 0 .68.3.68.66v1.72h-.05Zm-29.93-8 2.84 2.02 2.89-2.02 2.88 2.02L20 21.75l2.83 2.02 2.9-2.02 2.88 2.02 2.89-2.02 2.88 2.02 3.31-2.38-.9-1.21-2.4 1.67-2.9-2.03-2.88 2.03-2.89-2.03-2.89 2.03L20 19.82l-2.89 2.03-2.88-2.03-2.9 2.03-2.83-2.03-2.88 2.03-2.42-1.67-.94 1.21 3.36 2.38 2.88-2.02Zm28.72-3.45c0-.3.05-1.31 0-1.52C36.85 8.88 29.29 2.55 20 2.55c-9.3 0-16.9 6.33-17.27 14.23v1.52h34.49ZM20 4.07c8.4 0 15.33 5.67 15.64 12.71H4.3C4.67 9.74 11.6 4.07 20 4.07Z" />
    <path fill="#81B3D2"
      d="M20 11.16c.58 0 1.05-.45 1.05-1.01S20.58 9.14 20 9.14c-.58 0-1.05.45-1.05 1 0 .57.47 1.02 1.05 1.02Zm-4.2-2.48c.58 0 1.05-.45 1.05-1.01s-.47-1.02-1.05-1.02c-.58 0-1.05.46-1.05 1.02s.47 1 1.05 1Zm8.4 0c.58 0 1.05-.45 1.05-1.01s-.47-1.02-1.05-1.02c-.58 0-1.05.46-1.05 1.02s.47 1 1.05 1Z" />
  </svg>
  <svg id="gift-mobile" viewbox="0 0 40 40" fill="none">
    <path fill="#81B3D2"
      d="M34.58 12.2h-12.4c6.91-3.44 7.47-5.62 7.22-6.83-.56-1.98-2.85-3.5-4.98-2.69-2.8 1.07-3.56 5.22-4.32 8.2-.96-3.03-1.88-6.88-4.06-8.85A3.7 3.7 0 0 0 13.14 1c-2.03.2-4.92 2.69-3.7 5.47 1.11 2.69 4.82 4.4 7.3 5.78H5.43c-.81 0-1.42.65-1.42 1.41v5.68c0 .8.66 1.42 1.42 1.42h.15V39h28.96V20.77h.05c.81 0 1.42-.66 1.42-1.42v-5.68c0-.8-.66-1.46-1.42-1.46Zm-9.35-8.25c1.07-.15 2.5.66 2.64 1.62.2 1.37-1.67 2.63-2.54 3.2-1.27.85-2.49 1.3-3.65 2.02.4-1.88 1.27-6.54 3.55-6.84ZM13.75 8.91c-1.12-.76-3.25-2.23-3.2-3.9.05-1.82 2.9-3.29 4.42-1.92 1.93 1.67 2.85 5.57 3.56 8.3-1.63-.8-3.15-1.41-4.78-2.48Zm3 28.57h-9.7V20.77h9.7v16.71Zm0-18.23H5.52v-5.52h11.23v5.52Zm5.08 18.23h-3.6V13.73h3.6v23.75Zm11.17 0h-9.65V20.77h9.7v16.71H33Zm1.48-18.23H23.35v-5.52h11.13v5.52Z" />
  </svg>
  <svg id="house" viewbox="0 0 100 100" fill="none">
    <path fill="#81B3D2" d="M41.96 90.3h17.02V66.4H41.96v23.9Zm13.93-2.9H45.04V69.3H55.8v18.1h.1Z" />
    <path fill="#81B3D2"
      d="m87.8 64.4 2.24-2.1-10.53-9.9v-27H64.83v13.2L50.26 25 10.57 62.4l2.24 2.1 8.3-7.8v37.8h-4.15v2.9h67.98v-2.9H79.5V56.6l8.3 7.8Zm-19.89-36h8.4v21.1l-8.4-7.9V28.4Zm8.52 66H24.3V53.7l25.96-24.5 26.06 24.5v40.7h.1Z" />
    <path fill="#81B3D2"
      d="M42.28 52.2c0 4.3 3.72 7.8 8.19 7.8 4.57 0 8.3-3.5 8.3-7.8s-3.73-7.7-8.3-7.7c-4.58 0-8.2 3.4-8.2 7.7Zm8.19-5c2.87 0 5.32 2.2 5.32 5 0 2.7-2.34 5-5.32 5-2.87 0-5.32-2.2-5.32-5 0-2.7 2.45-5 5.32-5ZM31.74 66.4h-3.19v3.9h3.2v-3.9Zm6.28 0h-3.19v3.9h3.2v-3.9Zm-6.28 6h-3.19v3.9h3.2v-3.9Zm6.28 0h-3.19v3.9h3.2v-3.9Zm27.66-6h-3.2v3.9h3.2v-3.9Zm6.38 0h-3.19v3.9h3.2v-3.9Zm-6.38 6h-3.2v3.9h3.2v-3.9Zm6.38 0h-3.19v3.9h3.2v-3.9Z" />
  </svg>
  <svg id="food" viewbox="0 0 100 100" fill="none">
    <path fill="#81B3D2"
      d="M82.05 74H17.26c-2.3 0-4.12 2-4.12 4.3v3.5c0 2.3 1.82 4.2 4.12 4.2h.96v1c0 5.5 4.31 9.9 9.49 9.9h43.9c5.27 0 9.49-4.5 9.49-9.9v-1h.95c2.2 0 4.13-1.9 4.13-4.3v-3.5c0-2.2-1.83-4.2-4.13-4.2Zm-3.73 13c0 3.8-2.97 6.9-6.62 6.9H27.61C23.97 93.9 21 90.8 21 87v-1h57.32v1Zm4.98-5.3c0 .7-.57 1.3-1.25 1.3H17.26a1.3 1.3 0 0 1-1.24-1.3v-3.5c0-.6.57-1.2 1.24-1.2h64.89c.67 0 1.25.6 1.25 1.3v3.4h-.1ZM28.67 65.9l5.17 4 5.28-4 5.27 4 5.27-4 5.17 4 5.28-4 5.27 4 5.27-4 5.27 4 6.04-4.7-1.63-2.4-4.41 3.3-5.27-4-5.27 4-5.27-4-5.28 4-5.17-4-5.27 4-5.27-4-5.28 4-5.17-4-5.27 4-4.41-3.3-1.73 2.4 6.14 4.7 5.27-4Zm52.43-6.8c0-.6.1-2.6 0-3C80.42 40.5 66.62 28 49.66 28 32.69 28 18.8 40.5 18.12 56.1v3H81.1ZM49.66 31c15.33 0 27.99 11.2 28.56 25.1H21C21.67 42.2 34.32 31 49.66 31Z" />
    <path fill="#81B3D2"
      d="M49.66 45c1.06 0 1.92-.9 1.92-2s-.86-2-1.92-2-1.92.9-1.92 2 .86 2 1.92 2Zm-7.67-4.9c1.06 0 1.92-.9 1.92-2s-.86-2-1.92-2-1.92.9-1.92 2 .86 2 1.92 2Zm15.34 0c1.05 0 1.91-.9 1.91-2s-.86-2-1.91-2c-1.06 0-1.92.9-1.92 2s.86 2 1.92 2Z" />
  </svg>
  <svg id="gift" viewbox="0 0 100 100" fill="none">
    <path fill="#81B3D2"
      d="M85.44 47.12h-30c16.72-6.8 18.08-11.1 17.46-13.5-1.35-3.9-6.88-6.9-12.05-5.3-6.76 2.1-8.6 10.3-10.45 16.2-2.33-6-4.55-13.6-9.83-17.5a10.21 10.21 0 0 0-7.01-2c-4.92.4-11.93 5.3-8.98 10.8 2.7 5.3 11.68 8.7 17.7 11.4h-27.4c-1.97 0-3.44 1.3-3.44 2.8v11.2c0 1.6 1.6 2.8 3.44 2.8h.37v36h70.08v-36h.12c1.97 0 3.45-1.3 3.45-2.8v-11.2c0-1.6-1.6-2.9-3.45-2.9Zm-22.62-16.3c2.58-.3 6.02 1.3 6.4 3.2.48 2.7-4.06 5.2-6.15 6.3-3.08 1.7-6.03 2.6-8.86 4 .99-3.7 3.08-12.9 8.61-13.5Zm-27.79 9.8c-2.7-1.5-7.87-4.4-7.74-7.7.12-3.6 7-6.5 10.7-3.8 4.67 3.3 6.88 11 8.6 16.4-3.93-1.6-7.62-2.8-11.56-4.9Zm7.26 56.4H18.8v-33h23.5v33Zm0-36H15.1v-10.9h27.2v10.9Zm12.3 36h-8.74v-46.9h8.73v46.9Zm27.04 0H58.27v-33h23.48v33h-.12Zm3.57-36H58.27v-10.9H85.2v10.9Z" />
  </svg>
  <svg id="vk" viewbox="0 0 24 24" fill="none">
    <g clip-path="url(#clip0_67920_69)">
      <path fill="#fff" fill-rule="evenodd"
        d="M23.45 5.95c.17-.55 0-.95-.8-.95h-2.62c-.67 0-.98.35-1.14.73 0 0-1.34 3.2-3.23 5.27-.61.6-.89.8-1.22.8-.17 0-.42-.2-.42-.74V5.95c0-.66-.18-.95-.74-.95H9.15c-.42 0-.67.3-.67.6 0 .61.95.76 1.05 2.5v3.8c0 .84-.16.99-.5.99-.88 0-3.05-3.21-4.33-6.89-.25-.71-.5-1-1.17-1H.9c-.75 0-.9.35-.9.73 0 .68.89 4.07 4.14 8.55C6.32 17.34 9.38 19 12.15 19c1.67 0 1.88-.37 1.88-1v-2.32c0-.73.16-.88.69-.88.38 0 1.05.2 2.61 1.67C19.11 18.22 19.4 19 20.41 19h2.62c.75 0 1.13-.37.91-1.1-.24-.72-1.09-1.77-2.21-3.02-.62-.7-1.54-1.47-1.81-1.86-.4-.49-.28-.7 0-1.14 0 0 3.2-4.43 3.53-5.93Z"
        clip-rule="evenodd" />
    </g>
    <defs>
      <clipPath id="clip0_67920_69">
        <path fill="#fff" d="M0 0h24v24H0z" />
      </clipPath>
    </defs>
  </svg>
  <svg id="telegram" viewbox="0 0 24 24" fill="none">
    <path fill="#fff"
      d="m22.44 4.62-3.17 14.95c-.24 1.05-.86 1.31-1.75.82l-4.83-3.56-2.33 2.24c-.25.26-.47.47-.97.47l.35-4.91 8.95-8.09c.39-.35-.09-.54-.6-.2L7.01 13.32l-4.76-1.49c-1.04-.32-1.05-1.03.22-1.53L21.1 3.11c.87-.32 1.62.2 1.34 1.51Z" />
  </svg>
  <svg id="youtube" viewbox="0 0 24 24" fill="none">
    <path fill="#fff"
      d="M19.18 5H4.81C3.31 5 2 6.3 2 7.8v8.3C2 17.7 3.3 19 4.81 19h14.37A2.8 2.8 0 0 0 22 16.2V7.8c.1-1.5-1.2-2.8-2.8-2.8ZM9.03 15.4V8.6l6.84 3.4-6.84 3.4Z" />
  </svg>
  <svg id="htmlacademy" viewbox="0 0 27 35" fill="none">
    <path fill="currentColor"
      d="M13.65.45h-.1L.05 1.85v24.7l13.5 8 13.4-8V1.85L13.65.45Zm11.4 12.1-11.5-6.8v-.1h-.1l-.1-.1v.1l-11.4 6.9v-9l11.5-1.2 11.6 1.2v9Zm-11.6-5.3 11.5 6.7-4.5 2.6-7.1-4.2v1.4l5.9 3.5-.9.5-5-3v1.4l3.8 2.3-.8.5-3-1.8v1.4l1.9 1.1-1.8 1.1-11.4-6.7 11.4-6.8Zm-11.5 8.3 11.4 6.8v1l-7.9-4.7v1.4l8 4.8v1.1l-8-4.7v1.4l8 4.8 8.1-4.9v-5.2l3.4-2v10l-11.5 6.9-11.5-6.8v-9.9Z" />
  </svg>
  <svg id="map-pin" viewbox="0 0 27 27" fill="none">
    <path fill="#fff" d="M13.5 27a13.5 13.5 0 1 0 0-27 13.5 13.5 0 0 0 0 27Z" />
    <path fill="#81B3D3" d="M13.5 21.9a8.4 8.4 0 1 0 0-16.8 8.4 8.4 0 0 0 0 16.8Z" />
  </svg>
</svg>
